<?xml version="1.0" encoding="UTF-8"?>
<svg id="b" data-name="Layer 2" xmlns="http://www.w3.org/2000/svg" viewBox="0 0 256 256">
  <defs>
    <style>
      .c {
        fill: #600080;
      }

      .d {
        fill: #8700b3;
      }

      .e {
        fill: #231f20;
      }
    </style>
  </defs>
  <g>
    <path class="d" d="M181.74,241.77c-14.41,0-31.6-12.16-65.69-46.47-17.4-17.51-31.15-24.54-42.19-30.18-11.54-5.9-19.88-10.16-24.37-22.86-2.95-8.34-1.26-16.36,1.54-29.65,3.37-15.99,8.46-40.16,8.95-82.42,.02-1.64,1.36-2.97,3-2.97h75.95c1.47,0,2.72,1.06,2.96,2.51,5.46,32.85,4.91,53.15,4.59,65.29-.14,5.34-.25,9.19,.26,11.35,2.3,9.79,17.72,24.38,27.92,34.04,2.77,2.62,5.38,5.09,7.4,7.14,25.79,26.18,30.12,47.7,29.22,61.15-1,14.91-8.37,23.42-8.68,23.78-.1,.11-.21,.22-.33,.32-7.55,6.29-13.69,8.97-20.52,8.97h0Z"/>
    <path class="e" d="M138.92,30.22c7.97,47.97,3.03,68.93,4.89,76.84,3.15,13.38,26.31,32.66,36.11,42.6,48.4,49.13,20.43,80.83,20.43,80.83-6.21,5.18-11.92,8.28-18.6,8.28-13.38,0-30.64-12.45-63.56-45.59-35.93-36.17-57.78-29.07-65.86-51.93-6.03-17.03,9.77-34.64,10.66-111.04h75.95m0-6H62.97c-3.29,0-5.96,2.64-6,5.93-.49,41.96-5.54,65.96-8.89,81.83-2.81,13.33-4.66,22.14-1.43,31.27,4.89,13.83,14.13,18.55,25.83,24.53,10.85,5.55,24.36,12.45,41.43,29.63,34.74,34.96,52.49,47.36,67.82,47.36,9.61,0,17.04-5.17,22.44-9.67,.24-.2,.46-.41,.66-.64,.34-.39,8.36-9.64,9.42-25.56,.61-9.11-1.14-18.61-5.22-28.22-4.92-11.63-13.29-23.48-24.86-35.23-2.06-2.09-4.69-4.58-7.48-7.22-9.94-9.41-24.97-23.63-27.06-32.55-.42-1.78-.31-5.67-.18-10.59,.33-12.24,.88-32.73-4.62-65.86-.48-2.89-2.98-5.02-5.92-5.02h0Z"/>
  </g>
  <g>
    <path class="c" d="M142.56,58.65H61.85c-.21,2.92-.43,5.73-.68,8.43h82c-.16-2.66-.36-5.47-.61-8.43Z"/>
    <path class="c" d="M143.61,78.65H59.93c-.36,2.96-.75,5.77-1.14,8.43h84.84c.03-2.56,.03-5.35-.02-8.43Z"/>
    <path class="c" d="M143.4,97.74l-86.66,1.66c-.56,3.04-1.12,5.85-1.66,8.46l88.56-1.69c-.32-2.03-.32-4.79-.24-8.43Z"/>
    <path class="c" d="M93.99,124.71l54.74-7.73c-1.54-2.23-2.81-4.4-3.72-6.48l-60.05,6.3,9.04,7.9Z"/>
    <path class="c" d="M90.61,146.02l66.74-18.53c-2.16-2.33-4.2-4.68-6.03-7.01l-55.91,15.96-4.79,9.58Z"/>
    <path class="c" d="M161.65,131.99l-84.84,31.27c2.97,1.52,6.18,3.2,9.63,5.19l81.24-30.53c-1.99-1.91-4.03-3.9-6.04-5.94Z"/>
    <path class="c" d="M173.52,143.47l-74.79,32.93c2.37,1.72,4.82,3.61,7.36,5.71l73.4-32.87c-1.69-1.69-3.72-3.64-5.97-5.76Z"/>
    <path class="c" d="M185.9,156.09l-70.21,34.65c.82,.8,1.65,1.61,2.49,2.45,1.23,1.24,2.44,2.45,3.63,3.63l69.13-34.65c-1.55-1.99-3.22-4.01-5.04-6.07Z"/>
    <path class="c" d="M198.03,172.39l-67.26,33.19c2.19,2.1,4.3,4.08,6.33,5.96l64.64-32.41c-1.08-2.19-2.31-4.44-3.71-6.74Z"/>
    <path class="c" d="M138.94,30.29s0-.05-.01-.08H62.97c-.02,1.38-.04,2.73-.06,4.07,0,.36-.02,.72-.02,1.08-.02,1.02-.05,2.02-.07,3.02,0,.33-.02,.66-.03,.99-.03,1.13-.07,2.24-.11,3.34,0,.15-.01,.31-.02,.46-.05,1.31-.1,2.62-.15,3.89h78.84c-.63-5.19-1.42-10.77-2.42-16.78Z"/>
    <path class="c" d="M207.9,198.43l-44.91,3.01,.53,31.09c16.24,9.81,25.74,7.2,36.83-2.04,0,0,10.38-11.76,7.55-32.06Z"/>
    <path class="c" d="M90.61,129.67c-8.18-8.09-21.9-11.96-37-14.79-2.49,11.84-3.85,19.16-1.3,26.37,4.13,11.68,11.86,15.54,23.21,21.35l15.08-32.93Z"/>
  </g>
</svg>